<svg width="135" height="32" viewBox="0 0 135 32" fill="none" xmlns="http://www.w3.org/2000/svg">
<path fill-rule="evenodd" clip-rule="evenodd" d="M131.284 7.75431C130.55 8.38914 130.312 9.4872 129.954 10.6367C129.749 11.3059 129.493 11.9922 129.289 12.6785C128.846 14.1197 128.488 15.6638 128.027 16.8992C127.635 17.9458 126.919 19.0438 126.305 20.0046C125.709 20.914 124.976 21.9263 123.885 22.2351C122.555 22.6126 121.992 21.8062 122.078 20.5537C122.163 19.3698 122.538 18.1517 122.862 17.0193C123.799 13.7251 125.044 10.5853 126.016 7.42833C124.055 6.63909 122.35 7.32538 121.634 8.71512C121.259 9.43573 121.055 10.3622 120.748 11.2373C120.015 13.3476 119.299 15.5781 118.856 17.9286C118.753 18.4433 118.753 19.0095 118.617 19.4899C118.395 20.262 117.372 21.4459 116.81 21.8405C116.349 22.1493 115.412 22.5954 114.696 22.2866C114.133 22.0292 113.98 21.2057 114.065 20.4679C114.167 19.3355 114.559 18.1688 114.866 17.0707C115.787 13.7937 116.98 10.5166 117.935 7.51411C116.486 6.89645 114.73 7.22244 114.031 8.09746C112.411 6.02142 109.002 7.3597 107.382 8.47492C104.944 10.1563 103.069 12.7814 101.722 15.7325C100.972 17.3796 100.358 19.1639 100.29 21.1542C100.222 23.0758 101.006 24.843 103.342 24.7915C105.012 24.7572 106.479 23.4704 107.536 22.5439C108.763 21.463 109.718 20.1934 110.638 18.9752C110.127 22.0635 110.621 24.7572 113.673 24.7744C115.957 24.7915 117.423 22.8871 118.549 21.6003C118.702 23.093 119.316 24.3455 120.748 24.6543C123.51 25.2719 125.641 22.8356 126.749 21.3086C125.675 24.2253 124.192 28.6005 121.839 29.9216C121.362 30.1789 120.731 30.4535 120.168 30.1618C119.572 28.9265 121.276 27.5367 120.952 26.1813C120.816 25.6323 120.202 25.4092 119.435 25.3063C118.463 26.4215 116.707 29.424 117.969 31.0883C118.395 31.6716 119.265 31.9633 120.305 31.9976C122.879 32.0662 125.061 30.6422 126.544 29.0809C128.164 27.3995 129.187 25.1004 130.056 22.7327C131.965 17.5511 133.278 12.2324 135 7.46264C133.636 6.82782 132.153 6.99939 131.284 7.75431ZM112.326 12.2667C112.002 13.279 111.781 14.3599 111.388 15.3722C111.133 16.0585 110.553 16.7619 110.11 17.3624C109.172 18.6492 108.371 19.7644 107.075 20.7424C106.172 21.4115 104.279 22.3895 104.279 20.2792C104.279 19.0095 104.74 17.8257 105.098 16.8305C106.104 14.0854 107.877 10.9113 109.871 9.4872C110.689 8.8867 112.377 8.14893 113.366 9.28132C113.008 10.2593 112.65 11.2544 112.326 12.2667ZM101.893 6.6734C101.739 6.36457 101.296 6.193 100.836 6.193C99.9833 6.24447 99.1821 6.62193 98.5854 7.23959C98.8411 10.3279 98.0057 13.8966 97.017 16.4188C96.2668 18.3232 95.3804 20.262 94.0847 21.5488C93.7096 21.9263 92.9425 22.5611 92.3799 22.4067C91.5957 22.2008 91.5957 20.0561 91.6298 19.3012C91.8344 14.9776 93.2323 11.752 94.1529 8.59502C92.4992 7.92589 90.9479 8.61218 90.3682 9.64162C89.9079 10.4652 89.6011 11.7177 89.2942 12.8844C88.9873 14.0511 88.8169 15.3722 88.4759 16.4531C88.3054 16.985 87.9645 17.5855 87.6746 18.1517C86.9075 19.6958 85.8846 21.6346 84.4867 22.2523C82.3386 23.2131 83.2422 19.6272 83.5661 18.4262C84.6912 14.2398 86.2937 10.8083 87.7087 7.18812C85.9528 6.57046 84.3844 7.05086 83.5661 8.11462C83.0376 8.81807 82.7819 9.74456 82.4238 10.6882C81.5885 12.9701 80.702 15.3722 80.1394 17.9286C80.0201 18.4776 80.0371 19.1125 79.8837 19.6443C79.7473 20.0733 79.27 20.6909 78.9119 21.1199C78.5539 21.566 78.1107 21.9263 77.5993 22.1836C77.2071 22.3724 76.5764 22.5439 76.099 22.3895C74.6499 21.9606 75.7069 18.6664 76.099 17.3281C77.0367 13.9996 78.2812 10.7397 79.2188 7.56558C77.7527 6.94792 76.0649 7.30822 75.3148 8.14893C74.7522 7.4798 74.0362 7.06802 72.7406 7.05086C71.0187 7.01655 69.348 7.99452 68.2228 8.90386C65.802 10.8255 63.8244 13.5706 62.5288 16.8477C62.1367 17.8428 61.8469 18.8723 61.6934 19.936C61.6423 20.0561 61.5741 20.1591 61.5229 20.262C61.0115 21.0684 60.483 21.7032 59.6818 22.0978C59.2726 22.3037 58.6418 22.5782 58.011 22.2866C56.7495 21.7204 57.6871 18.8894 58.0622 17.5168C58.8635 14.48 60.0739 11.323 60.9433 8.66365H62.9379C63.3812 8.68081 63.7733 8.33766 63.7903 7.87442C63.8074 7.42832 63.4664 7.03371 63.0061 7.01655C62.9891 7.01655 62.955 7.01655 62.9379 7.01655H61.4718C62.2049 4.80325 62.972 2.64143 63.654 0.376663C61.9662 -0.429731 60.1762 0.136461 59.426 1.33747C59.1874 1.71493 59.0851 2.26397 58.8975 2.77869C58.4373 4.15128 57.9088 5.72975 57.4314 7.01655H55.4027C54.9595 6.99939 54.5673 7.34254 54.5503 7.80579C54.5333 8.25188 54.8742 8.6465 55.3345 8.66365C55.3516 8.66365 55.3857 8.66365 55.4027 8.66365H56.8859C56.1699 10.8941 55.3175 13.1417 54.6355 15.7153C53.749 19.061 52.6409 24.3111 56.5108 24.7229C58.7782 24.9631 60.5001 23.3846 61.5911 21.8576C61.6423 22.7155 61.8639 23.4704 62.3242 24.0023C63.4494 25.3406 65.444 24.8259 66.6374 24.1739C68.8025 23.0072 70.5414 20.914 71.8711 19.1125C71.5131 21.8062 71.7177 24.2253 73.9339 24.7229C76.8662 25.392 78.4346 23.1444 79.7814 21.6861C79.7132 23.6077 81.3328 25.3406 83.5149 24.7058C85.6971 24.0709 86.9757 21.1885 88.1179 19.4213C87.9304 21.6861 88.3395 23.7793 89.8568 24.4999C91.9878 25.5293 94.1529 23.7793 95.3463 22.5439C96.4714 21.3772 97.4432 19.936 98.3979 18.2203C99.6424 15.9384 100.938 13.0731 101.603 10.0019C101.773 9.1269 102.165 7.25675 101.893 6.6734ZM73.1156 13.931C72.9451 14.4457 72.911 15.0462 72.6894 15.5437C72.4337 16.1614 71.8029 16.8992 71.3767 17.4825C70.405 18.8208 69.6037 19.7644 68.3081 20.811C67.8307 21.1885 66.9272 21.9263 66.16 21.6689C65.6997 21.5145 65.5463 20.7253 65.5974 19.9875C65.6656 18.9237 66.0066 17.8428 66.3816 16.8649C67.3363 14.3599 68.9218 11.5461 70.6436 10.0019C71.4961 9.22984 73.4395 7.99452 74.6329 9.38426C74.1555 10.9113 73.61 12.3525 73.1156 13.931ZM48.6687 10.7912C48.2255 9.50436 48.8051 8.13178 49.7257 7.75431C50.0667 7.5999 51.1748 7.65137 51.0555 6.86213C50.9873 6.39889 50.0667 6.4332 49.4018 6.51899C47.4242 6.7935 45.0375 7.87442 44.8841 10.2764C44.867 10.6196 45.0034 10.997 44.9352 11.3574C44.8841 11.649 44.5601 12.0436 44.3385 12.3696C43.3327 13.8109 42.2757 15.0633 40.3663 15.2349C41.2528 12.5412 41.3551 9.64162 39.9401 8.21756C38.3035 6.5533 35.2349 6.93076 33.3596 7.94304C30.2227 9.62446 27.8531 12.9358 26.9495 17.1908C26.8131 17.8428 26.8813 18.5806 26.6768 19.3698C26.5233 19.936 25.9778 20.7253 25.5345 21.24C25.0231 21.8405 24.4776 22.2523 23.8468 22.4238C22.1079 22.9386 21.801 21.4802 22.142 19.8331C22.3466 18.8551 22.6364 17.8428 22.8921 16.9678C24.5287 11.3745 26.3699 6.0729 28.0747 0.565394C26.9666 -0.189529 25.3811 0.0849887 24.5117 0.685495C23.557 1.33747 23.2501 2.5728 22.8068 3.94539C22.0738 6.22731 21.1702 9.22985 20.4883 11.1343C18.3573 11.1515 16.2093 11.1686 14.0612 11.1515C14.4022 10.0534 14.7431 8.97248 15.067 7.89157C15.5785 6.45036 16.107 4.99198 16.5673 3.53361C16.823 2.76153 17.2321 1.49189 16.8912 0.788439C16.465 -0.120899 15.0841 0.0678314 14.0783 0.153618C9.95263 0.513922 6.66235 2.05808 4.30972 4.52874C3.33799 5.54102 2.36625 6.81066 2.19577 8.54355C2.17872 8.73228 2.17872 8.90386 2.17872 9.09259C2.29806 10.2593 3.33799 11.1343 4.49725 11.0142C4.80412 10.9799 5.09393 10.8941 5.34965 10.7397C5.34965 10.7397 5.34966 10.7397 5.3667 10.7397C6.03158 10.3622 6.42368 9.64162 6.42368 8.8867C6.42368 8.73228 6.40663 8.57787 6.37254 8.44061C6.30435 8.01167 6.30434 7.56558 6.38959 7.13665C6.76464 5.11209 8.63993 3.44783 10.1231 2.67575C10.6686 2.38407 11.6574 1.97229 12.1518 2.22965C12.7996 2.55564 11.8961 4.46011 11.6915 5.04346C10.6857 7.90873 9.23661 13.6736 8.36716 16.5389C7.37837 19.0953 6.09977 21.8748 4.30972 22.8871C3.83238 23.1616 3.2016 23.419 2.63902 23.1273C2.04234 21.892 3.74714 20.5022 3.42323 19.1468C3.28684 18.5977 2.67311 18.3747 1.90595 18.2889C0.934213 19.4041 -0.821736 22.4067 0.439819 24.0709C0.86602 24.6543 1.73547 24.946 2.7754 24.9803C5.34965 25.0489 7.5318 23.6248 9.03203 22.0635C10.6516 20.3821 11.6574 18.083 12.5439 15.7153C12.6462 15.4236 12.7485 15.132 12.8508 14.8403H12.8678C12.9019 14.7373 12.919 14.6516 12.9531 14.5486C13.1236 14.0854 13.277 13.6221 13.4304 13.1589C13.4645 13.0388 13.5157 12.9358 13.5668 12.8157C15.7319 12.8157 17.897 12.8157 20.0451 12.7986C19.3802 14.7545 18.8688 16.7448 18.5107 18.7865C17.9652 21.9606 18.4085 24.946 21.7499 24.8602C24.2048 24.7915 25.688 22.7327 26.8813 21.0856C27.3416 23.1444 28.6373 24.8087 31.3138 24.843C32.456 24.8602 33.4448 24.3455 34.3143 23.8307C36.8885 22.2694 38.7468 19.5071 39.9401 16.5732C42.6849 16.4874 44.1169 14.7545 45.4807 12.9187C46.3672 15.0633 48.0891 16.333 47.9868 18.9581C47.9186 20.5708 46.9639 22.0978 46.1115 22.7498C44.867 23.7106 42.0882 23.3503 42.2587 21.3086C42.3609 20.1419 43.1111 19.9532 43.3156 19.0438C43.452 18.512 43.2815 18.0144 42.9065 17.7914C41.8495 17.1737 40.8437 18.1688 40.5027 18.6664C39.7696 19.7473 39.548 21.5145 40.0936 22.6126C40.9801 24.3969 43.4009 25.0661 45.7876 24.5857C47.7481 24.191 49.5893 23.1273 50.7827 21.7547C52.2147 20.0561 52.5727 17.6884 51.7544 15.6295C51.0043 13.7937 49.2654 12.5412 48.6687 10.7912ZM37.1442 14.8403C37.2806 15.1663 37.758 15.5437 37.775 15.8697C37.8091 16.2987 37.1954 17.5511 37.0249 17.9458C36.2237 19.7988 34.911 21.7204 33.2573 22.3209C31.0751 23.1273 30.2909 21.0169 30.5296 18.8379C30.7512 16.7276 31.365 15.1491 32.1321 13.3991C32.8311 11.8034 33.8369 10.2593 34.8939 9.41857C35.3201 9.09259 36.0191 8.69797 36.5817 8.68081C37.5193 8.66365 37.8262 9.14406 38.1671 9.76172C37.2295 10.8769 36.5305 13.3133 37.1442 14.8403Z" fill="#FD6300"/>
</svg>
